<mxfile host="app.diagrams.net" modified="2021-02-19T17:50:17.882Z" agent="5.0 (Windows NT 10.0; Win64; x64) AppleWebKit/537.36 (KHTML, like Gecko) Chrome/88.0.4324.150 Safari/537.36" etag="RQS9nP3ZX6PGTwImymdc" version="14.4.2" type="github">
  <diagram id="_mL21G-IwM7lMuCUSppO" name="Page-1">
    <mxGraphModel dx="1422" dy="762" grid="1" gridSize="10" guides="1" tooltips="1" connect="1" arrows="1" fold="1" page="1" pageScale="1" pageWidth="850" pageHeight="1100" math="0" shadow="0">
      <root>
        <mxCell id="0" />
        <mxCell id="1" parent="0" />
        <mxCell id="X0ODO6UieVCEBn2gRTgO-1" value="" style="rounded=0;whiteSpace=wrap;html=1;" vertex="1" parent="1">
          <mxGeometry x="200" y="40" width="370" height="560" as="geometry" />
        </mxCell>
        <mxCell id="X0ODO6UieVCEBn2gRTgO-2" value="" style="rounded=0;whiteSpace=wrap;html=1;" vertex="1" parent="1">
          <mxGeometry x="200" y="40" width="370" height="120" as="geometry" />
        </mxCell>
        <mxCell id="X0ODO6UieVCEBn2gRTgO-3" value="" style="rounded=0;whiteSpace=wrap;html=1;" vertex="1" parent="1">
          <mxGeometry x="200" y="160" width="370" height="120" as="geometry" />
        </mxCell>
        <mxCell id="X0ODO6UieVCEBn2gRTgO-5" value="" style="rounded=0;whiteSpace=wrap;html=1;" vertex="1" parent="1">
          <mxGeometry x="370" y="330" width="200" height="270" as="geometry" />
        </mxCell>
        <mxCell id="X0ODO6UieVCEBn2gRTgO-6" value="" style="shape=partialRectangle;whiteSpace=wrap;html=1;bottom=1;right=1;left=1;top=0;fillColor=none;routingCenterX=-0.5;" vertex="1" parent="1">
          <mxGeometry x="200" y="630" width="370" height="20" as="geometry" />
        </mxCell>
        <mxCell id="X0ODO6UieVCEBn2gRTgO-7" value="" style="shape=partialRectangle;whiteSpace=wrap;html=1;bottom=1;right=1;left=1;top=0;fillColor=none;routingCenterX=-0.5;rotation=90;flipH=0;flipV=1;" vertex="1" parent="1">
          <mxGeometry x="315.5" y="312.5" width="565" height="20" as="geometry" />
        </mxCell>
      </root>
    </mxGraphModel>
  </diagram>
</mxfile>
